<?xml version="1.0" encoding="UTF-8"?>
<!-- Generator: Adobe Illustrator 22.0.1, SVG Export Plug-In . SVG Version: 6.00 Build 0)  -->
<svg version="1.1" id="eye" xmlns="http://www.w3.org/2000/svg" xmlns:xlink="http://www.w3.org/1999/xlink" x="0px" y="0px" viewBox="0 0 256 256" style="enable-background:new 0 0 256 256;" xml:space="preserve">
<style type="text/css">
	.st0{fill:#E6DAA6;}
</style>
<path id="eye_1_" class="st0" d="M128,167.1c32.3,0.1,63.1-14.3,83.8-39.1c-38.7-46.3-107.7-52.4-154-13.7  c-4.9,4.1-9.5,8.7-13.6,13.6C64.9,152.8,95.6,167.2,128,167.1z M115.1,108c7.8-5,17.9-5,25.7,0c11,7.1,14.2,21.8,7.1,32.9  c-1.8,2.9-4.3,5.3-7.1,7.1c-7.8,5-17.9,5-25.7,0c-11-7.1-14.2-21.8-7.1-32.9C109.8,112.3,112.3,109.8,115.1,108z M155.8,151.4  c11.4-13.5,11.4-33.3,0-46.9c15,4.5,28.8,12.5,40.1,23.4C184.6,139,170.9,147,155.8,151.4z M100.2,104.6  c-11.4,13.5-11.4,33.3,0,46.9c-15-4.5-28.8-12.5-40.1-23.5C71.4,117,85.2,109,100.2,104.6L100.2,104.6z M119.5,141.3  c5.2,3.4,11.9,3.4,17.1,0l0,0c7.3-4.7,9.5-14.5,4.7-21.8c-1.2-1.9-2.8-3.5-4.7-4.7l0,0c-5.2-3.4-11.9-3.4-17.1,0l0,0  c-7.3,4.7-9.4,14.5-4.7,21.8C115.9,138.5,117.6,140.1,119.5,141.3L119.5,141.3z M125.3,123.8c1.7-1.1,3.8-1.1,5.5,0  c2.3,1.5,3,4.6,1.5,7c-0.4,0.6-0.9,1.1-1.5,1.5c-1.7,1.1-3.8,1.1-5.5,0c-2.3-1.5-3-4.6-1.5-7C124.2,124.7,124.7,124.2,125.3,123.8  L125.3,123.8z M132.7,49.7c2.1,7.8,3.2,15.9,3.4,24c4,0.3,8,0.7,12,1.4c-0.1-27.8-10.6-54.6-29.5-75c-5.1,0.4-10.1,1-15.1,1.9  C117.7,14.7,127.8,31.3,132.7,49.7L132.7,49.7z M76,69.3c5,2.9,9.7,6.2,14.1,9.9c4.6-1.4,9.2-2.6,14-3.5  C84.4,56.5,58.3,45.2,30.9,44.1c-3.3,3.8-6.4,7.8-9.2,12c1.6-0.1,3.2-0.1,4.9-0.1C43.9,56,61,60.6,76,69.3z M150.4,75.4  c4,0.7,7.9,1.7,11.7,2.8c5.8-25.8,2.3-52.8-10-76.3c-5-0.9-10-1.6-15-1.9C151.5,22.3,156.3,49.5,150.4,75.4z M53.6,91.3  c-9.6,0-19.2,1.2-28.5,3.7c1.4,3.8,3,7.5,4.8,11.1c5.5-1.3,11-2.2,16.6-2.6c5.1-4.4,10.5-8.3,16.2-11.8  C59.8,91.4,56.7,91.3,53.6,91.3L53.6,91.3z M106.7,75.2c4.3-0.7,8.7-1.3,13-1.5c-14-24.8-36.8-43.3-64-51.8  c-4.2,2.8-8.1,5.9-11.9,9.2C69.8,36.8,92.5,52.7,106.7,75.2z M165.2,79.1c3.8,1.2,7.6,2.6,11.3,4.2c10.2-22.1,12.8-47,7.5-70.8  c-4.5-2.2-9.2-4.1-14-5.8C177.6,30.6,175.9,56.5,165.2,79.1L165.2,79.1z M112.3,51.1c4.1,7,7.3,14.6,9.5,22.4  c2.1-0.1,4.1-0.2,6.2-0.2s4.1,0.1,6.2,0.2c-7-27.7-24.3-51.6-48.4-66.8c-4.8,1.6-9.5,3.6-14,5.8C88.7,21.2,102.8,34.6,112.3,51.1  L112.3,51.1z M202.4,164.8c9.6,0,19.2-1.2,28.5-3.7c-1.4-3.8-3-7.5-4.8-11.1c-5.5,1.3-11.1,2.2-16.8,2.6  c-5.1,4.4-10.5,8.3-16.3,11.8C196.1,164.7,199.2,164.8,202.4,164.8L202.4,164.8L202.4,164.8z M166,176.8c-4.6,1.4-9.2,2.6-13.9,3.5  c19.7,19.1,45.7,30.4,73.1,31.6c3.3-3.8,6.3-7.8,9.1-12c-1.5,0.1-3.1,0.1-4.6,0.1C206.4,199.9,183.9,191.7,166,176.8L166,176.8z   M228.1,123.9c2.4,3.2,4.7,6.5,6.8,10c7.6-4.3,14.7-9.4,21.1-15.3c-0.4-5-1-10-2-14.9C246.6,111.8,237.8,118.6,228.1,123.9  L228.1,123.9z M206.5,101.4c12.8-12.7,22.2-28.4,27.6-45.5c-2.8-4.1-5.9-8.1-9.2-11.9c-4.2,19.2-14.1,36.6-28.2,50.2  C200.1,96.5,203.3,98.9,206.5,101.4L206.5,101.4z M180.6,85.2c3.7,1.7,7.2,3.6,10.7,5.7c2-2.9,4-5.8,5.8-8.9c9-15.5,14.1-33,14.8-51  c-3.8-3.3-7.8-6.4-12-9.3c0.9,19-3.6,37.8-13.2,54.3C184.9,79.2,182.8,82.2,180.6,85.2L180.6,85.2z M213,107.1  c2.9,2.7,5.8,5.6,8.4,8.6c11-8.1,20.5-18.3,27.8-29.8c-1.7-4.8-3.6-9.4-5.8-14C236.3,85.9,225.8,97.9,213,107.1L213,107.1z   M36.9,81.4c8.7,0,17.3,1.1,25.7,3.4c2.7,0.7,5.4,1.6,8,2.5c4.9-2.5,9.9-4.7,15.1-6.5c-15.2-7.5-31.9-11.4-48.9-11.4  c-5.8,0-11.7,0.5-17.4,1.4c0.5,4,1.1,7.9,2,11.8C26.5,81.8,31.7,81.4,36.9,81.4z M149.3,180.8c-4.3,0.7-8.7,1.3-13.1,1.5  c14,24.8,36.8,43.3,64,51.8c4.2-2.8,8.1-5.9,11.9-9.2C186.2,219.2,163.5,203.3,149.3,180.8z M134.3,182.5c-2.1,0.1-4.2,0.2-6.3,0.2  c-2,0-4.1-0.1-6.1-0.2c7,27.6,24.4,51.5,48.4,66.8c4.8-1.6,9.4-3.6,14-5.8C159.9,230.9,141.9,208.8,134.3,182.5L134.3,182.5z   M105.7,180.6c-3.9-0.7-7.8-1.7-11.7-2.8c-5.8,25.8-2.3,52.8,9.9,76.2c4.9,0.9,9.9,1.6,14.9,1.9C104.6,233.6,99.9,206.5,105.7,180.6  L105.7,180.6z M120,182.4c-4-0.3-8-0.7-12-1.4c0.1,27.8,10.6,54.5,29.4,75c5-0.4,10-1,15-1.9C132.2,235.6,120.5,209.7,120,182.4  L120,182.4z M241,145.1c1.7,3.6,3.3,7.3,4.6,11.1c2.9-1.2,5.7-2.5,8.4-4c1-5,1.6-10,2-15C251.2,140.2,246.2,142.9,241,145.1  L241,145.1z M219.4,174.5c-11.5,0-23-2-33.8-5.9c-4.9,2.5-10,4.7-15.2,6.6c20.5,10.1,43.6,13.6,66.2,9.9c-0.5-4-1.1-7.9-2-11.8  C229.5,174.1,224.5,174.5,219.4,174.5L219.4,174.5z M27.9,132.1c-2.4-3.2-4.6-6.5-6.7-9.9c-7.6,4.2-14.7,9.3-21.1,15.2  c0.4,5,1,10,2,14.9C9.4,144.2,18.2,137.4,27.9,132.1z M43,148.9c-2.9-2.7-5.8-5.6-8.4-8.6c-11,8.1-20.5,18.3-27.8,29.8  c1.7,4.8,3.6,9.4,5.8,14C19.8,170.1,30.2,158.1,43,148.9L43,148.9z M10.5,100c-2.9,1.2-5.7,2.5-8.5,4c-1,4.9-1.6,9.9-2,14.9  c4.8-3,9.8-5.7,15.1-7.9C13.4,107.4,11.8,103.8,10.5,100L10.5,100z M49.5,154.6c-12.8,12.7-22.2,28.4-27.6,45.5  c2.8,4.1,5.9,8.1,9.2,11.9c4.2-19.2,14.1-36.6,28.2-50.2C55.9,159.5,52.7,157.1,49.5,154.6L49.5,154.6z M79.7,172.7  c-10.2,22.2-12.8,47-7.5,70.8c4.5,2.2,9.2,4.1,13.9,5.7c-7.6-23.9-5.8-49.7,4.8-72.4C87.1,175.7,83.3,174.3,79.7,172.7L79.7,172.7z   M75.4,170.8c-3.6-1.7-7.2-3.6-10.6-5.6c-12.5,17.5-19.7,38.3-20.6,59.9c3.8,3.3,7.8,6.4,11.9,9.2C55.1,211.5,61.9,189.2,75.4,170.8  L75.4,170.8z"/>
</svg>